/* XPM */
static char *csmapfx[] = {
/* columns rows colors chars-per-pixel */
"32 32 43 1 ",
"  c #660066",
". c #990033",
"X c #A50021",
"o c #CC0000",
"O c red",
"+ c #CC0033",
"@ c #FF3333",
"# c #990066",
"$ c #CC3366",
"% c #FF5050",
"& c #FF6666",
"* c #000099",
"= c #330099",
"- c #333399",
"; c #660099",
": c #663399",
"> c #0000CC",
", c #3300CC",
"< c #0033CC",
"1 c #3333CC",
"2 c blue",
"3 c #3333FF",
"4 c #0066FF",
"5 c #6666CC",
"6 c #6666FF",
"7 c #800080",
"8 c #CC6699",
"9 c #FF7C80",
"0 c #0099FF",
"q c #00CCFF",
"w c #33CCFF",
"e c cyan",
"r c #33FFFF",
"t c #66FFFF",
"y c #FF9999",
"u c #9999CC",
"i c #9999FF",
"p c #99CCFF",
"a c #A6CAF0",
"s c #99FFFF",
"d c #CCECFF",
"f c #CCFFFF",
"g c white",
/* pixels */
"gggggggggggggggggggggggggggggggg",
"gggggggggggggggggggggggggggggggg",
"ggggggggggtttsggggggsttsgfgggggg",
"ggggggggretgggretggtrggfregggggg",
"gggggggeetggggawwapesggggrgggggg",
"ggggggreri632222020eq6iggsgggggg",
"gggggsee02222222224eeq426dgggggg",
"gggggwee42222222222eeeeq<g6ggggg",
"gggg3qee42366322222<qeeee4>1gggg",
"ggg32qee46igi632222224eeee4>1ggg",
"gg3220ee06ii632222422220eeq>>1gg",
"g62222eeq3333222220222220eq>>>5g",
"g222220ee42222244200222>4e4>>>>g",
"i2222220ee422200220e0222qq>>>>>5",
"3222222220qqq0<2224<40004>>>>>>1",
"222222222222222222222>>>>>>>>>>*",
"22;;;;22222;;;;>2222>>>>>>>>>>>*",
"322+OO,2222+OO>2222>>>>>>>>>>>*-",
"622#+O#222;#OO22>>>>>>>>>>>>>>*5",
"g22#;OO,22#;OO2>>>;7;>>,;;=  =*u",
"g32#2OO72,;;OO>>>o;=O+>>+O+ oO-g",
"gg2#27OO>#27OO>>;O#>OO>>+O * O%g",
"ggi#>>OO77>7OO>>>;=#OO>>+O * O@g",
"ggg$>>#OO>> OO>>> +=OO>*+O *8O@g",
"ggg&g1=O#>> OO>> O >OO**XO ggO%g",
"ggg@ggu+=>> OO>>.O+#OO *XO@g%Ogg",
"ggg&ggggu1=##. *=. * .:u%Oy&%ggg",
"ggggggggggggu555555ugggg%Oyggggg",
"gggggggggggggggggggggggg%Oyggggg",
"gggggggggggggggggggggggg%@9ggggg",
"gggggggggggggggggggggggggggggggg",
"gggggggggggggggggggggggggggggggg"
};
